<svg width="64" height="64" viewBox="0 0 64 64" fill="none" xmlns="http://www.w3.org/2000/svg">
  <defs>
    <linearGradient id="pulseStayGradient" x1="8" y1="10" x2="55" y2="56" gradientUnits="userSpaceOnUse">
      <stop offset="0" stop-color="#D946EF"/>
      <stop offset="0.48" stop-color="#8B5CF6"/>
      <stop offset="1" stop-color="#22C55E"/>
    </linearGradient>
    <filter id="pulseStayGlow" x="-30%" y="-30%" width="160%" height="160%">
      <feGaussianBlur stdDeviation="2.2" result="blur"/>
      <feMerge>
        <feMergeNode in="blur"/>
        <feMergeNode in="SourceGraphic"/>
      </feMerge>
    </filter>
  </defs>
  <rect width="64" height="64" rx="16" fill="#060816"/>
  <path d="M15 9C24.5 8.3 37 9.8 48.8 20.2C56.1 26.6 57.1 39.3 51 47.1C44.6 55.3 32.3 57.7 23.6 52.8C12 46.2 8.6 32.8 10.1 22.6C10.8 17.8 12.3 13.4 15 9Z" fill="rgba(8,10,26,0.82)" stroke="url(#pulseStayGradient)" stroke-width="2.6"/>
  <path d="M17 10.5C27.1 11.2 39.5 14.4 49.5 24.3C55.6 30.3 55.6 40.7 50.2 46.9C42.8 55.4 29.1 56.7 19.6 49.9" stroke="url(#pulseStayGradient)" stroke-opacity="0.92" stroke-width="4" stroke-linecap="round"/>
  <path d="M22 55C31 46.8 37.7 36.8 42.9 23.9C45.2 29.8 47.9 35 52.7 41.2" stroke="url(#pulseStayGradient)" stroke-width="6" stroke-linecap="round" stroke-linejoin="round"/>
  <path d="M7 33H19L24 24L29 41L35 29L39 33H51" stroke="#F8FAFC" stroke-width="4.5" stroke-linecap="round" stroke-linejoin="round" filter="url(#pulseStayGlow)"/>
  <path d="M43 9L47 13" stroke="#22C55E" stroke-width="3" stroke-linecap="round"/>
  <path d="M49 7L52 10" stroke="#A3E635" stroke-width="3" stroke-linecap="round"/>
  <rect x="44" y="15" width="4" height="4" rx="1" fill="#22C55E"/>
  <rect x="50" y="14" width="5" height="5" rx="1.2" fill="#86EFAC"/>
  <rect x="47" y="21" width="3.5" height="3.5" rx="1" fill="#8B5CF6"/>
  <rect x="54" y="20" width="3" height="3" rx="1" fill="#22C55E"/>
</svg>